<?xml version="1.0" encoding="UTF-8"?>
<!DOCTYPE svg PUBLIC "-//W3C//DTD SVG 1.1//EN" "http://www.w3.org/Graphics/SVG/1.1/DTD/svg11.dtd">
<!-- Creator: CorelDRAW 2019 (64-Bit) -->
<svg xmlns="http://www.w3.org/2000/svg" xml:space="preserve" width="1181px" height="1181px" version="1.1" style="shape-rendering:geometricPrecision; text-rendering:geometricPrecision; image-rendering:optimizeQuality; fill-rule:evenodd; clip-rule:evenodd"
viewBox="0 0 57.9 57.9"
 xmlns:xlink="http://www.w3.org/1999/xlink"
 xmlns:xodm="http://www.corel.com/coreldraw/odm/2003">
 <defs>
  <style type="text/css">
   <![CDATA[
    .fil1 {fill:none}
    .fil0 {fill:#B0B0B0}
   ]]>
  </style>
 </defs>
 <g id="Katman_x0020_1">
  <metadata id="CorelCorpID_0Corel-Layer"/>
  <path class="fil0" d="M35.99 38.57c-0.1,-0.2 -0.66,-0.71 -0.89,-0.93 -0.17,-0.17 -0.15,-0.21 -0.47,-0.21 -0.83,0 -1.69,0 -2.52,0.01 -1.66,0.03 -3.35,-0.03 -5.01,0 -1.64,0.02 -3.38,0.04 -5.02,0 -1.03,-0.03 -4.11,0.14 -4.84,-0.16 -1.59,-0.64 -1.26,-2.32 -1.3,-3.73 -0.05,-1.63 -0.02,-3.38 0,-5.02 0.03,-1.66 -0.03,-3.35 0,-5.01 0.01,-1.06 -0.12,-2.08 1.03,-2.76 0.13,-0.08 0.26,-0.14 0.41,-0.18 0.23,-0.07 0.36,-0.04 0.5,-0.19 -0.33,-0.26 -0.57,-0.63 -0.91,-0.86 -1.28,0.34 -2.15,1.7 -2.15,3.13 0,1.55 -0.07,12.52 0.03,13.2 0.1,0.77 0.46,1.25 0.92,1.74 0.48,0.5 0.98,0.77 1.69,0.92 0.48,0.1 7.2,0.06 7.93,0.05 1.75,-0.03 3.52,0.03 5.27,0 1.75,-0.04 3.58,-0.02 5.33,0zm-9.19 -12.59c0.2,0.18 0.43,0.41 0.63,0.62l4.48 4.49c0.5,-0.43 0.76,-1.72 0.69,-2.55 -0.1,-1.19 -0.72,-1.96 -1.5,-2.56 -0.17,-0.13 -0.27,-0.2 -0.49,-0.31 -1.3,-0.6 -2.93,-0.52 -3.81,0.31zm4 7.36c-0.13,-0.14 -0.76,-0.8 -0.89,-0.88 -0.09,-0.02 -2.33,0.86 -4.01,-1.37 -0.39,-0.51 -0.71,-1.37 -0.68,-2.21 0.04,-0.88 0.26,-0.86 0.03,-1.11 -0.13,-0.14 -0.63,-0.64 -0.76,-0.71 -0.89,1.4 -0.23,4.21 1.03,5.25 0.19,0.16 0.11,0.15 0.45,0.41 0.55,0.42 1.1,0.72 1.81,0.9 0.73,0.19 2.55,0.21 3.02,-0.28zm8.6 5.23c0.68,-0.04 0.94,0.02 1.59,-0.21 0.81,-0.28 1.58,-1.03 1.87,-1.84 0.34,-0.95 0.23,-2.83 0.22,-3.92 -0.03,-3.13 0.05,-6.43 0,-9.53 0,-0.61 0.02,-1.06 -0.19,-1.6 -0.23,-0.57 -0.5,-0.97 -0.92,-1.34 -0.08,-0.07 -0.14,-0.11 -0.25,-0.2 -0.93,-0.73 -2.34,-0.59 -3.49,-0.59l-2.73 -0.01c-1.23,-1.72 -1.06,-2.81 -3.94,-2.81l-5.31 0c-2.67,0 -2.78,1.23 -3.87,2.82 -0.3,0 -2.11,0.05 -2.25,-0.04l-4.17 -4.16c-0.77,-0.79 -1.29,-0.04 -1.12,0.47 0.06,0.18 2.52,2.59 2.93,2.99 1.74,1.69 3.58,3.59 5.34,5.34l2.35 2.37c1.6,1.68 3.67,3.57 5.32,5.31 1.09,1.15 2.44,2.38 3.57,3.56l6.51 6.52c0.19,0.21 0.4,0.41 0.6,0.61 0.17,0.16 0.45,0.47 0.61,0.6 0.67,0.54 1.3,-0.16 0.9,-0.75 -0.2,-0.28 -3.42,-3.38 -3.57,-3.59zm-14.44 -14.42c0.29,0.28 0.75,0.8 1.03,1.01 2.03,-1.65 5.19,-1.12 6.6,0.64 0.31,0.4 0.41,0.54 0.65,1 0.27,0.53 0.42,1.05 0.49,1.72 0.17,1.38 -0.4,2.53 -0.97,3.37 0.07,0.15 0.75,0.81 0.91,0.96 0.36,-0.23 0.97,-1.47 1.1,-1.81 0.28,-0.79 0.46,-1.56 0.39,-2.48 -0.19,-2.39 -1.41,-4.2 -3.52,-5.27 -2.19,-1.11 -5.05,-0.61 -6.68,0.86zm-1.93 -3.68l-1.73 0c0.09,0.14 0.22,0.21 0.33,0.34 0.47,0.5 2.28,2.23 2.52,2.54 0.88,-0.55 0.95,-0.75 2.18,-1.25 0.82,-0.33 2.01,-0.57 2.98,-0.49 2.31,0.17 4.12,1.2 5.21,2.56 1,1.25 1.68,2.52 1.77,4.31 0.05,1.14 -0.1,2.05 -0.47,3.01 -0.51,1.37 -1.17,1.94 -1.31,2.21 0.38,0.38 0.73,0.72 1.11,1.11l2.49 2.48c0.13,0.13 0.12,0.16 0.37,0.16 0.36,0 0.75,0 1.11,-0.01 1.02,-0.01 1.73,-0.28 2.17,-1.12 0.14,-0.25 0.22,-0.53 0.24,-0.86 0.08,-1.44 -0.02,-2.97 0.01,-4.42 0.04,-2.12 -0.04,-4.49 0,-6.62 0.03,-1.55 0.25,-2.68 -0.88,-3.55 -0.47,-0.38 -1.08,-0.41 -1.79,-0.4 -1.48,0 -3,0.03 -4.47,-0.01l-0.8 -1.36c-0.37,-0.56 -0.43,-0.9 -1,-1.21 -0.62,-0.34 -1.15,-0.26 -1.91,-0.25l-4.36 0.01c-1.96,0 -1.99,-0.07 -2.92,1.44 -0.26,0.41 -0.54,1.04 -0.85,1.38zm9.68 14.73c-0.23,-0.3 -0.59,-0.54 -0.78,-0.81 -0.58,0.14 -1.79,1.14 -4.11,0.69 -3.41,-0.66 -5.53,-3.78 -5,-7.16 0.14,-0.87 0.38,-1.2 0.63,-1.89 -0.14,-0.23 -0.6,-0.68 -0.82,-0.83l-0.15 0.22c-1.27,2.22 -1.2,4.69 -0.05,6.98 0.25,0.49 0.94,1.44 1.3,1.76 0.66,0.56 0.91,0.84 1.77,1.29 0.72,0.37 1.4,0.63 2.29,0.76 1.65,0.25 2.98,-0.01 4.43,-0.7 0.09,-0.04 0.17,-0.08 0.27,-0.13l0.22 -0.18z"/>
  <rect class="fil1" width="57.9" height="57.9"/>
 </g>
</svg>
