<?xml version="1.0" encoding="UTF-8"?>
<!DOCTYPE svg PUBLIC "-//W3C//DTD SVG 1.1//EN" "http://www.w3.org/Graphics/SVG/1.1/DTD/svg11.dtd">
<!-- Creator: CorelDRAW 2019 (64-Bit) -->
<svg xmlns="http://www.w3.org/2000/svg" xml:space="preserve" width="533px" height="533px" version="1.1" style="shape-rendering:geometricPrecision; text-rendering:geometricPrecision; image-rendering:optimizeQuality; fill-rule:evenodd; clip-rule:evenodd"
viewBox="0 0 11.74 11.74"
 xmlns:xlink="http://www.w3.org/1999/xlink"
 xmlns:xodm="http://www.corel.com/coreldraw/odm/2003">
 <defs>
  <style type="text/css">
   <![CDATA[
    .fil4 {fill:#151A1E}
    .fil3 {fill:#303538}
    .fil0 {fill:#3C98E2}
    .fil8 {fill:#415E75}
    .fil2 {fill:#5D350B}
    .fil5 {fill:#ABABAB}
    .fil6 {fill:#DEBE9E}
    .fil1 {fill:#F0D6BB}
    .fil7 {fill:#FCFCFC}
   ]]>
  </style>
 </defs>
 <g id="Katman_x0020_1">
  <metadata id="CorelCorpID_0Corel-Layer"/>
  <g id="_1963072967216">
   <path class="fil0" d="M0 11.74l1.92 0c0.16,-1.48 0.54,-2.27 1.75,-2.69 0.24,-0.23 0.07,-0.13 0.36,-0.25 0.14,-0.37 0.01,-0.23 0.27,-0.36l0.6 -0.09 -0.01 -0.17c-0.44,-0.4 -0.61,-0.61 -0.92,-1.24 -0.2,-0.41 -1,-1.11 -0.45,-1.61 -0.1,-0.64 -0.16,-0.96 -0.11,-1.64 -0.67,0.19 -0.76,-0.04 -1.07,-0.34 0.65,-0.19 0.79,-0.15 1.24,-0.6l-0.38 -0.27c-0.18,-0.16 -0.12,-0.09 -0.22,-0.35 1.14,0.14 1.42,-0.28 2.62,-0.31 0.54,-0.01 0.55,-0.29 1.3,-0.1 0.49,0.13 0.64,0.41 0.71,0.95 1.28,0.01 0.8,2.19 0.64,2.62 0.31,0.19 0.24,0.57 0.08,0.93 -0.2,0.41 -0.25,0.2 -0.49,0.7 -0.39,0.82 -0.58,0.9 -1.03,1.42l0.69 0.1 0.28 0.37c0.16,0.1 0.16,0.11 0.32,0.24 1.21,0.49 1.36,1.24 1.55,2.69l2.09 0 0 -11.74 -11.74 0 0 11.74z"/>
   <path class="fil1" d="M3.52 5.33c-0.55,0.5 0.25,1.2 0.45,1.61 0.31,0.63 0.48,0.84 0.92,1.24 0.56,0.51 1.24,0.56 1.92,0.16 0.45,-0.52 0.64,-0.6 1.03,-1.42 0.24,-0.5 0.29,-0.29 0.49,-0.7 0.16,-0.36 0.23,-0.74 -0.08,-0.93l-0.34 0.76c-0.07,-0.89 -0.11,-1.81 -0.75,-2.11 -0.84,-0.4 -1.3,-0.21 -1.87,0.43 -0.16,-0.01 -0.06,-0.15 -0.24,-0.13 -0.14,0.01 -0.55,0.58 -0.67,0.9 -0.15,-0.24 -0.05,-0.23 -0.25,-0.46 -0.15,0.43 -0.18,0.81 -0.2,1.36 -0.23,-0.22 -0.25,-0.41 -0.41,-0.71z"/>
   <path class="fil2" d="M3.52 5.33c0.16,0.3 0.18,0.49 0.41,0.71 0.02,-0.55 0.05,-0.93 0.2,-1.36 0.2,0.23 0.1,0.22 0.25,0.46 0.12,-0.32 0.53,-0.89 0.67,-0.9 0.18,-0.02 0.08,0.12 0.24,0.13 0.57,-0.64 1.03,-0.83 1.87,-0.43 0.64,0.3 0.68,1.22 0.75,2.11l0.34 -0.76c0.16,-0.43 0.64,-2.61 -0.64,-2.62 -0.07,-0.54 -0.22,-0.82 -0.71,-0.95 -0.75,-0.19 -0.76,0.09 -1.3,0.1 -1.2,0.03 -1.48,0.45 -2.62,0.31 0.1,0.26 0.04,0.19 0.22,0.35l0.38 0.27c-0.45,0.45 -0.59,0.41 -1.24,0.6 0.31,0.3 0.4,0.53 1.07,0.34 -0.05,0.68 0.01,1 0.11,1.64z"/>
   <path class="fil3" d="M1.92 11.74l2.99 0 -0.63 -1.28 0.39 -0.24c-0.5,-0.12 -0.5,-0.01 -0.68,-0.36 -0.1,-0.18 -0.26,-0.61 -0.32,-0.81 -1.21,0.42 -1.59,1.21 -1.75,2.69z"/>
   <path class="fil3" d="M6.97 11.74l2.68 0c-0.19,-1.45 -0.34,-2.2 -1.55,-2.69 -0.19,1.14 -0.53,1.08 -0.99,1.17l0.41 0.19c-0.11,0.41 -0.38,0.88 -0.55,1.33z"/>
   <path class="fil4" d="M3.67 9.05c0.06,0.2 0.22,0.63 0.32,0.81 0.18,0.35 0.18,0.24 0.68,0.36l-0.39 0.24 0.63 1.28 0.7 0c-0.16,-0.58 -0.41,-1.12 -0.56,-1.65 -0.25,-0.18 -0.36,-0.48 -0.52,-0.68 -0.22,-0.26 -0.32,-0.36 -0.5,-0.61 -0.29,0.12 -0.12,0.02 -0.36,0.25z"/>
   <path class="fil4" d="M7.15 9.74c-0.28,0.75 -0.46,1.02 -0.65,2l0.47 0c0.17,-0.45 0.44,-0.92 0.55,-1.33l-0.41 -0.19c0.46,-0.09 0.8,-0.03 0.99,-1.17 -0.16,-0.13 -0.16,-0.14 -0.32,-0.24 -0.1,0.15 -0.19,0.28 -0.32,0.48 -0.19,0.32 -0.04,0.22 -0.31,0.45z"/>
   <path class="fil5" d="M6.83 8.84c-0.27,0.11 -0.56,0.31 -0.82,0.54 0.1,0.1 0.15,-0.1 0.23,0.35 0.04,0.21 -0.05,0.31 -0.11,0.43 0.1,0.06 0.14,0.03 0.2,0.09 0.75,-0.5 0.63,-0.68 0.82,-0.51 0.27,-0.23 0.12,-0.13 0.31,-0.45 0.13,-0.2 0.22,-0.33 0.32,-0.48l-0.28 -0.37 -0.67 0.4z"/>
   <path class="fil5" d="M4.03 8.8c0.18,0.25 0.28,0.35 0.5,0.61 0.16,0.2 0.27,0.5 0.52,0.68 0.01,-0.15 -0.03,-0.11 0.12,-0.11l0.23 0.29c0.11,-0.09 0.09,-0.05 0.18,-0.18 -0.01,-0.25 -0.06,-0.15 0.01,-0.35 0.14,-0.35 -0.1,-0.13 0.24,-0.26 -0.1,-0.21 0.03,-0.05 -0.21,-0.24 -0.01,-0.01 -0.22,-0.15 -0.22,-0.15 -0.21,-0.13 -0.36,-0.21 -0.56,-0.31l-0.54 -0.34c-0.26,0.13 -0.13,-0.01 -0.27,0.36z"/>
   <path class="fil6" d="M4.84 8.78c0.2,0.1 0.35,0.18 0.56,0.31 0,0 0.21,0.14 0.22,0.15 0.24,0.19 0.11,0.03 0.21,0.24 0.04,0.16 -0.15,0.14 0.13,0.12l0.05 -0.22c0.26,-0.23 0.55,-0.43 0.82,-0.54l-0.02 -0.5c-0.68,0.4 -1.36,0.35 -1.92,-0.16l0.01 0.17 -0.06 0.43z"/>
   <path class="fil3" d="M5.83 9.48c-0.34,0.13 -0.1,-0.09 -0.24,0.26 -0.07,0.2 -0.02,0.1 -0.01,0.35 0.34,0.29 0.18,1.15 0.12,1.65l0.59 0c-0.07,-0.51 -0.23,-1.05 -0.16,-1.58 0.06,-0.12 0.15,-0.22 0.11,-0.43 -0.08,-0.45 -0.13,-0.25 -0.23,-0.35l-0.05 0.22c-0.28,0.02 -0.09,0.04 -0.13,-0.12z"/>
   <path class="fil7" d="M6.13 10.16c-0.07,0.53 0.09,1.07 0.16,1.58l0.21 0c0.19,-0.98 0.37,-1.25 0.65,-2 -0.19,-0.17 -0.07,0.01 -0.82,0.51 -0.06,-0.06 -0.1,-0.03 -0.2,-0.09z"/>
   <path class="fil7" d="M5.61 11.74l0.09 0c0.06,-0.5 0.22,-1.36 -0.12,-1.65 -0.09,0.13 -0.07,0.09 -0.18,0.18l-0.23 -0.29c-0.15,0 -0.11,-0.04 -0.12,0.11 0.15,0.53 0.4,1.07 0.56,1.65z"/>
   <polygon class="fil8" points="6.83,8.84 7.5,8.44 6.81,8.34 "/>
   <polygon class="fil8" points="4.3,8.44 4.84,8.78 4.9,8.35 "/>
  </g>
 </g>
</svg>
